<?xml version="1.0" encoding="utf-8"?>
<!-- Generator: Adobe Illustrator 16.0.0, SVG Export Plug-In . SVG Version: 6.00 Build 0)  -->
<!DOCTYPE svg PUBLIC "-//W3C//DTD SVG 1.1//EN" "http://www.w3.org/Graphics/SVG/1.1/DTD/svg11.dtd">
<svg version="1.1" id="Calque_1" xmlns="http://www.w3.org/2000/svg" xmlns:xlink="http://www.w3.org/1999/xlink" x="0px" y="0px"
	 width="168px" height="168px" viewBox="0 0 168 168" enable-background="new 0 0 168 168" xml:space="preserve">
<g>
	<circle fill="#E74C3C" cx="84" cy="84" r="84"/>
	<path fill="#FFFFFF" d="M57.663,140.308c-0.772,0-1.548-0.254-2.194-0.775c-1.116-0.898-27.347-22.465-27.347-60.489
		c0-15.58,9.755-28.255,21.747-28.255c5.998,0,11.546,3.126,15.546,8.426c5.918-18.731,19.935-31.519,35.731-31.519
		c21.356,0,38.731,23.035,38.731,51.349c0,31.602-26.022,59.038-27.13,60.189c-0.684,0.711-1.618,1.104-2.624,1.074
		c-0.985-0.029-1.916-0.473-2.558-1.222l-23.479-27.399l-23.779,27.416C59.618,139.896,58.644,140.308,57.663,140.308z
		 M49.868,57.787c-8.131,0-14.747,9.535-14.747,21.255c0,27.938,15.989,46.529,22.262,52.747l24.077-27.92
		c0.665-0.767,1.629-1.368,2.644-1.368c0.003,0,0.007,0,0.01,0c1.019,0,1.985,0.611,2.647,1.385l23.5,27.504
		c6.407-7.638,22.616-29.205,22.616-52.389c0-24.454-14.235-44.328-31.731-44.328c-14.881,0-27.932,14.795-31.029,35.167
		c-0.245,1.61-1.567,2.844-3.191,2.969c-1.62,0.124-3.119-0.884-3.607-2.438C60.913,62.725,55.634,57.787,49.868,57.787z"/>
</g>
</svg>
